<svg id="svg" version="1.1" xmlns="http://www.w3.org/2000/svg" xmlns:xlink="http://www.w3.org/1999/xlink" width="400" height="573.7543859649123" viewBox="0, 0, 400,573.7543859649123">
    <g id="svgg">
        <path id="path0" d="M343.018 288.777 C 343.018 337.699,314.273 386.156,270.456 411.100 C 216.020 442.088,146.926 433.693,101.946 390.625 L 98.751 387.565 78.645 407.672 L 58.538 427.778 59.796 429.077 C 86.584 456.769,133.526 480.114,170.667 484.214 C 171.825 484.342,175.046 484.703,177.825 485.017 C 192.079 486.626,207.860 486.629,222.175 485.025 C 224.954 484.714,227.860 484.398,228.632 484.325 C 244.163 482.837,268.224 475.534,286.677 466.707 C 353.996 434.504,399.636 363.398,399.715 290.596 L 399.719 286.596 371.368 286.596 L 343.018 286.596 343.018 288.777 " stroke="none" fill="#eb4132" fill-rule="evenodd">
        </path>
        <path id="path1" d="M171.228 528.947 L 171.228 573.754 200.000 573.754 L 228.772 573.754 228.772 528.960 L 228.772 484.166 228.000 484.324 C 226.541 484.624,217.118 485.592,212.820 485.883 C 201.297 486.665,179.557 485.833,172.140 484.326 L 171.228 484.140 171.228 528.947 " stroke="none" fill="#30a952" fill-rule="evenodd">
        </path>
        <path id="path2" d="M0.281 290.742 C 0.281 338.102,20.532 387.492,54.958 424.094 L 58.478 427.836 78.502 407.814 C 89.515 396.801,98.526 387.690,98.526 387.567 C 98.526 387.444,97.474 386.244,96.189 384.900 C 71.888 359.495,57.051 323.272,56.987 289.193 L 56.982 286.877 28.632 286.877 L 0.281 286.877 0.281 290.742 " stroke="none" fill="#fbbd01" fill-rule="evenodd">
        </path>
        <path id="path3" d="M190.877 0.318 C 152.277 4.256,121.260 34.022,115.014 73.123 L 114.386 77.053 114.386 185.263 C 114.386 273.591,114.454 293.989,114.759 296.281 C 121.444 346.656,167.939 379.864,217.721 369.820 C 254.079 362.485,281.749 331.490,285.467 293.935 C 285.869 289.870,285.865 81.438,285.462 77.433 C 280.676 29.817,238.531 -4.543,190.877 0.318 " stroke="none" fill="#4086f4" fill-rule="evenodd">
        </path>
    </g>
</svg>