<svg id="svg" version="1.1" xmlns="http://www.w3.org/2000/svg" xmlns:xlink="http://www.w3.org/1999/xlink" width="400" height="388.91142663962137" viewBox="0, 0, 400,388.91142663962137"><g id="svgg"><path id="path0" d="M188.986 5.067 C 189.622 5.124,190.596 5.123,191.150 5.065 C 191.704 5.007,191.183 4.960,189.993 4.961 C 188.803 4.962,188.350 5.009,188.986 5.067 M197.431 13.117 L 197.431 21.366 195.064 21.408 C 193.763 21.431,195.801 21.547,199.594 21.665 C 250.959 23.261,295.334 44.402,326.981 82.353 C 393.665 162.323,372.726 282.716,282.894 335.837 C 203.628 382.710,100.213 356.459,53.017 277.485 C 49.436 271.493,49.773 271.966,49.404 272.419 C 49.230 272.633,45.955 274.539,42.126 276.654 L 35.166 280.500 35.608 281.356 C 38.641 287.220,45.927 298.072,51.847 305.541 C 97.554 363.211,172.759 388.478,244.084 370.128 C 339.260 345.643,398.771 250.365,379.403 153.482 C 365.159 82.234,309.030 25.021,237.863 9.210 C 226.073 6.591,211.648 4.868,201.504 4.868 L 197.431 4.868 197.431 13.117 M184.250 5.333 C 184.661 5.395,185.269 5.393,185.602 5.329 C 185.935 5.265,185.598 5.214,184.855 5.216 C 184.111 5.218,183.839 5.271,184.250 5.333 M180.869 5.600 C 181.205 5.665,181.692 5.663,181.950 5.595 C 182.209 5.527,181.934 5.474,181.339 5.477 C 180.744 5.480,180.532 5.536,180.869 5.600 M178.026 5.866 C 178.286 5.934,178.712 5.934,178.972 5.866 C 179.233 5.798,179.020 5.742,178.499 5.742 C 177.978 5.742,177.765 5.798,178.026 5.866 M187.762 21.830 C 188.171 21.892,188.840 21.892,189.249 21.830 C 189.659 21.768,189.324 21.717,188.506 21.717 C 187.688 21.717,187.353 21.768,187.762 21.830 M183.705 22.093 C 183.966 22.161,184.391 22.161,184.652 22.093 C 184.912 22.025,184.699 21.969,184.178 21.969 C 183.658 21.969,183.445 22.025,183.705 22.093 M180.460 22.364 C 180.720 22.432,181.146 22.432,181.406 22.364 C 181.667 22.296,181.454 22.240,180.933 22.240 C 180.412 22.240,180.199 22.296,180.460 22.364 M113.793 24.630 C 113.235 24.924,112.779 25.225,112.779 25.299 C 112.779 25.373,113.266 25.185,113.861 24.882 C 114.456 24.578,114.943 24.271,114.943 24.200 C 114.943 24.023,114.941 24.024,113.793 24.630 M120.014 40.182 C 119.002 40.730,119.064 40.959,120.081 40.433 C 120.527 40.202,120.892 39.955,120.892 39.885 C 120.892 39.711,120.863 39.721,120.014 40.182 M72.333 53.347 L 71.264 54.496 72.414 53.427 C 73.483 52.433,73.687 52.197,73.483 52.197 C 73.439 52.197,72.921 52.715,72.333 53.347 M66.122 59.297 L 62.339 63.151 66.193 59.368 C 69.774 55.854,70.170 55.443,69.976 55.443 C 69.937 55.443,68.203 57.177,66.122 59.297 M85.852 63.624 L 85.057 64.503 85.936 63.709 C 86.420 63.272,86.815 62.876,86.815 62.830 C 86.815 62.621,86.592 62.805,85.852 63.624 M60.041 65.585 C 59.384 66.254,58.907 66.802,58.981 66.802 C 59.056 66.802,59.654 66.254,60.311 65.585 C 60.968 64.915,61.445 64.368,61.370 64.368 C 61.296 64.368,60.698 64.915,60.041 65.585 M83.300 65.855 C 82.643 66.525,82.166 67.072,82.240 67.072 C 82.315 67.072,82.913 66.525,83.570 65.855 C 84.227 65.186,84.704 64.638,84.629 64.638 C 84.555 64.638,83.956 65.186,83.300 65.855 M77.886 71.062 L 75.051 73.969 77.958 71.134 C 79.557 69.575,80.865 68.266,80.865 68.227 C 80.865 68.031,80.519 68.361,77.886 71.062 M56.102 70.115 L 55.308 70.994 56.187 70.200 C 57.006 69.459,57.190 69.236,56.981 69.236 C 56.934 69.236,56.539 69.632,56.102 70.115 M72.606 76.606 L 71.264 78.026 72.684 76.684 C 73.465 75.945,74.104 75.306,74.104 75.264 C 74.104 75.062,73.854 75.286,72.606 76.606 M68.543 81.204 L 67.748 82.082 68.627 81.288 C 69.447 80.548,69.631 80.325,69.422 80.325 C 69.375 80.325,68.980 80.720,68.543 81.204 M31.643 106.829 C 31.192 107.721,30.885 108.452,30.959 108.452 C 31.033 108.452,31.463 107.721,31.913 106.829 C 32.364 105.936,32.672 105.206,32.597 105.206 C 32.523 105.206,32.094 105.936,31.643 106.829 M47.329 112.779 C 47.026 113.374,46.838 113.861,46.913 113.861 C 46.987 113.861,47.296 113.374,47.600 112.779 C 47.903 112.184,48.091 111.697,48.016 111.697 C 47.942 111.697,47.633 112.184,47.329 112.779 M29.542 171.467 C 29.542 171.988,29.598 172.201,29.666 171.941 C 29.734 171.680,29.734 171.254,29.666 170.994 C 29.598 170.734,29.542 170.947,29.542 171.467 M29.277 174.037 C 29.280 174.632,29.336 174.843,29.400 174.507 C 29.465 174.170,29.462 173.683,29.395 173.425 C 29.327 173.166,29.274 173.442,29.277 174.037 M12.509 174.307 C 12.512 174.902,12.567 175.114,12.632 174.777 C 12.697 174.441,12.694 173.954,12.627 173.695 C 12.559 173.437,12.506 173.712,12.509 174.307 M29.012 177.147 C 29.012 177.816,29.065 178.090,29.129 177.755 C 29.194 177.421,29.194 176.873,29.129 176.538 C 29.065 176.204,29.012 176.477,29.012 177.147 M12.248 177.823 C 12.250 178.567,12.302 178.839,12.364 178.428 C 12.427 178.017,12.425 177.408,12.361 177.075 C 12.297 176.743,12.246 177.079,12.248 177.823 M28.752 181.339 C 28.753 182.231,28.804 182.564,28.864 182.078 C 28.924 181.592,28.923 180.861,28.861 180.455 C 28.800 180.049,28.750 180.446,28.752 181.339 M11.993 182.961 C 11.994 184.151,12.041 184.605,12.098 183.969 C 12.155 183.332,12.155 182.359,12.097 181.805 C 12.038 181.251,11.992 181.771,11.993 182.961 M28.508 190.264 C 28.508 192.792,28.549 193.863,28.599 192.643 C 28.649 191.424,28.649 189.355,28.599 188.046 C 28.549 186.737,28.509 187.735,28.508 190.264 M11.991 197.701 C 11.991 198.817,12.039 199.273,12.097 198.715 C 12.155 198.158,12.155 197.245,12.097 196.687 C 12.039 196.129,11.991 196.586,11.991 197.701 M28.745 199.459 C 28.747 200.203,28.800 200.475,28.862 200.064 C 28.924 199.653,28.923 199.044,28.858 198.712 C 28.794 198.379,28.743 198.715,28.745 199.459 M12.244 202.840 C 12.244 203.509,12.297 203.783,12.361 203.448 C 12.426 203.114,12.426 202.566,12.361 202.231 C 12.297 201.897,12.244 202.170,12.244 202.840 M29.001 203.651 C 29.001 204.172,29.057 204.385,29.125 204.124 C 29.193 203.864,29.193 203.438,29.125 203.178 C 29.057 202.918,29.001 203.130,29.001 203.651 M12.504 206.356 C 12.504 206.876,12.559 207.089,12.627 206.829 C 12.695 206.569,12.695 206.143,12.627 205.882 C 12.559 205.622,12.504 205.835,12.504 206.356 M29.272 206.897 C 29.272 207.417,29.327 207.630,29.395 207.370 C 29.463 207.110,29.463 206.684,29.395 206.423 C 29.327 206.163,29.272 206.376,29.272 206.897 M12.774 209.331 C 12.774 209.851,12.830 210.064,12.898 209.804 C 12.966 209.544,12.966 209.118,12.898 208.857 C 12.830 208.597,12.774 208.810,12.774 209.331 M47.735 268.830 C 48.259 269.872,48.749 270.723,48.824 270.723 C 48.898 270.723,48.530 269.872,48.005 268.830 C 47.481 267.789,46.991 266.937,46.917 266.937 C 46.842 266.937,47.211 267.789,47.735 268.830 " stroke="none" fill="#04b354" fill-rule="evenodd"></path><path id="path1" d="M187.971 5.166 C 53.448 12.143,-29.371 156.721,32.869 275.934 L 35.236 280.468 36.617 279.693 C 37.377 279.267,40.585 277.485,43.746 275.734 C 46.907 273.984,49.493 272.460,49.493 272.348 C 49.493 272.237,48.631 270.485,47.577 268.456 C 7.455 191.191,32.360 96.488,105.341 48.804 C 131.485 31.723,159.874 22.889,193.171 21.474 L 197.431 21.293 197.431 13.081 L 197.431 4.868 194.794 4.909 C 193.343 4.931,190.273 5.047,187.971 5.166 " stroke="none" fill="#444444" fill-rule="evenodd"></path></g></svg>